<svg xmlns="http://www.w3.org/2000/svg" viewBox="400 0 706 752">
  <g transform="translate(714.93785,65.434748)">
    <g transform="matrix(1.25,0,0,-1.25,-714.93786,934.56543)">
      <g transform="translate(-92.1427,-239.0776)">
        <g transform="matrix(7.7030327,0,0,7.7030327,-617.63552,-1602.5456)">
          <path
            fill="#00adef"
            transform="translate(169.9175,342.9329)"
            d="m 0,0 c -17.952,-0.004 -32.912,-12.771 -36.307,-29.723 l 15.154,0 c 1.115,3.235 2.949,6.131 5.329,8.516 4.073,4.062 9.622,6.551 15.824,6.555 6.203,-0.004 11.752,-2.493 15.824,-6.555 4.063,-4.072 6.553,-9.622 6.556,-15.824 -0.003,-6.204 -2.493,-11.752 -6.556,-15.826 -4.072,-4.061 -9.621,-6.551 -15.824,-6.554 -6.202,0.003 -11.751,2.493 -15.824,6.554 -2.358,2.365 -4.181,5.23 -5.3,8.427 l -15.15,0.004 0,-0.004 0,-18.67 c 0,-15.916 13.773,-14.978 13.773,-14.978 l 0.008,11.632 c 6.235,-4.777 14.031,-7.617 22.493,-7.618 20.454,0.005 37.028,16.578 37.032,37.033 C 37.028,-16.576 20.454,-0.004 0,0"
          />
        </g>
      </g>
    </g>
  </g>
</svg>
