<svg xmlns="http://www.w3.org/2000/svg" viewBox="89.7 1.5 31.7 23.5">
  <path
    d="m 93.93555,3.87305 c -2.05603,-0.034 -3.66537,0.52567 -4.10937,1.98047 -0.9184,3.00608 5.02226,6.23193 7.82226,7.76953 0.6016,0.32864 0.85932,0.12359 0.47852,-0.31641 -1.7696,-2.03647 -4.28638,-6.04679 -0.73438,-8.40039 0.1728,-0.11392 0.38347,-0.24343 0.57227,-0.35351 l 0.0566,-0.0312 -0.0566,-0.01 C 96.56445,4.12766 95.16917,3.89327 93.93555,3.87287 Z m 19.10352,8.90625 c -0.30825,-0.0604 -0.38371,0.1368 -0.0957,0.4668 1.7664,2.03616 4.28762,6.04551 0.73243,8.40039 v -0.002 c -0.1696,0.11392 -0.37636,0.2441 -0.56836,0.35546 l -0.0586,0.0332 0.0586,0.008 c 3.73115,1.02368 7.42435,0.98521 8.13475,-1.34375 0.9184,-3.00608 -5.0191,-6.23126 -7.82225,-7.76758 -0.1496,-0.0822 -0.27811,-0.13025 -0.38086,-0.15039 z"
    fill="#f67200"
  />
  <path
    d="m 111.01172,1.56836 c -8.2944,0 -12.99219,2.95313 -12.99219,2.95313 5.5072,1.03616 16.39889,6.57422 19.89646,6.57422 1.36,0 2.0137,-1.32205 2.0137,-2.89453 0,-1.8352 -0.653,-3.83195 -1.8594,-5.01563 -1.1424,-1.1264 -3.84577,-1.61719 -7.05857,-1.61719 z M 93.1543,15.45508 c -1.36,0 -2.01172,1.32273 -2.01172,2.89649 0,1.8352 0.65227,3.83066 1.85547,5.01562 1.1456,1.12512 3.8497,1.61914 7.0625,1.61914 8.2912,0 12.99219,-2.95508 12.99219,-2.95508 -5.5072,-1.03616 -16.40084,-6.57617 -19.89844,-6.57617 z"
    fill="#de1823"
  />
</svg>
